<?xml version="1.0" encoding="UTF-8" standalone="no"?>
<svg
   xmlns:dc="http://purl.org/dc/elements/1.1/"
   xmlns:cc="http://creativecommons.org/ns#"
   xmlns:rdf="http://www.w3.org/1999/02/22-rdf-syntax-ns#"
   xmlns:svg="http://www.w3.org/2000/svg"
   xmlns="http://www.w3.org/2000/svg"
   xmlns:sodipodi="http://sodipodi.sourceforge.net/DTD/sodipodi-0.dtd"
   xmlns:inkscape="http://www.inkscape.org/namespaces/inkscape"
   version="1.1"
   width="417.2413"
   height="384.33026"
   id="svg161"
   sodipodi:docname="geogebra-export.svg"
   inkscape:version="0.92.2 5c3e80d, 2017-08-06">
  <metadata
     id="metadata165">
    <rdf:RDF>
      <cc:Work
         rdf:about="">
        <dc:format>image/svg+xml</dc:format>
        <dc:type
           rdf:resource="http://purl.org/dc/dcmitype/StillImage" />
        <dc:title></dc:title>
      </cc:Work>
    </rdf:RDF>
  </metadata>
  <sodipodi:namedview
     pagecolor="#ffffff"
     bordercolor="#666666"
     borderopacity="1"
     objecttolerance="10"
     gridtolerance="10"
     guidetolerance="10"
     inkscape:pageopacity="0"
     inkscape:pageshadow="2"
     inkscape:window-width="1109"
     inkscape:window-height="847"
     id="namedview163"
     showgrid="false"
     fit-margin-top="0"
     fit-margin-left="0"
     fit-margin-right="0"
     fit-margin-bottom="0"
     inkscape:zoom="0.27346466"
     inkscape:cx="424.01684"
     inkscape:cy="122.6863"
     inkscape:window-x="209"
     inkscape:window-y="146"
     inkscape:window-maximized="0"
     inkscape:current-layer="svg161" />
  <defs
     id="defs5">
    <clipPath
       id="FvdUZXKqZvTX">
      <path
         d="M 0,0 H 1217 V 863 H 0 Z"
         id="path2"
         inkscape:connector-curvature="0"
         style="fill:none;stroke:none" />
    </clipPath>
  </defs>
  <g
     clip-path="url(#FvdUZXKqZvTX)"
     id="g159"
     transform="translate(-184.48316,-169.85605)">
    <g
       id="g157">
      <rect
         x="0"
         y="0"
         width="1217"
         height="863"
         id="rect7"
         style="fill:#ffffff;fill-opacity:1;stroke:none" />
      <path
         d="M 227,401 397,521 563.65967,396.40243 496.66101,199.3969 288.59389,202.23835 Z"
         id="path9"
         inkscape:connector-curvature="0"
         style="fill:#779bff;fill-opacity:0.09803922;fill-rule:evenodd;stroke:none;paint-order:stroke fill markers" />
      <path
         d="M 227,401 397,521 563.65967,396.40243 496.66101,199.3969 288.59389,202.23835 Z"
         stroke-miterlimit="10"
         id="path11"
         inkscape:connector-curvature="0"
         style="fill:none;stroke:#779bff;stroke-width:2.5;stroke-linecap:round;stroke-linejoin:round;stroke-miterlimit:10;stroke-opacity:0.69803922;paint-order:fill stroke markers" />
      <path
         d="m 462,342 -57,-80 -80,57 57,80 z"
         id="path13"
         inkscape:connector-curvature="0"
         style="fill:#30f7bd;fill-opacity:0.09803922;fill-rule:evenodd;stroke:none;paint-order:stroke fill markers" />
      <path
         d="m 462,342 -57,-80 -80,57 57,80 z"
         stroke-miterlimit="10"
         id="path15"
         inkscape:connector-curvature="0"
         style="fill:none;stroke:#30f7bd;stroke-width:2.5;stroke-linecap:round;stroke-linejoin:round;stroke-miterlimit:10;stroke-opacity:0.69803922;paint-order:fill stroke markers" />
      <path
         d="m 538.97241,341 c 0,80.06605 -64.90636,144.97241 -144.97241,144.97241 -80.06605,0 -144.97241,-64.90636 -144.97241,-144.97241 0,-80.06605 64.90636,-144.97241 144.97241,-144.97241 80.06605,0 144.97241,64.90636 144.97241,144.97241 z"
         stroke-miterlimit="10"
         id="path17"
         inkscape:connector-curvature="0"
         style="fill:none;stroke:#000000;stroke-width:2.5;stroke-linecap:round;stroke-linejoin:round;stroke-miterlimit:10;stroke-opacity:0.69803922;paint-order:fill stroke markers" />
      <path
         d="M 227,401 397,521"
         stroke-miterlimit="10"
         id="path19"
         inkscape:connector-curvature="0"
         style="fill:none;stroke:#779bff;stroke-width:2.5;stroke-linecap:round;stroke-linejoin:round;stroke-miterlimit:10;stroke-opacity:0.69803922;paint-order:fill stroke markers" />
      <path
         d="M 397,521 563.65967,396.40243"
         stroke-miterlimit="10"
         id="path21"
         inkscape:connector-curvature="0"
         style="fill:none;stroke:#779bff;stroke-width:2.5;stroke-linecap:round;stroke-linejoin:round;stroke-miterlimit:10;stroke-opacity:0.69803922;paint-order:fill stroke markers" />
      <path
         d="M 563.65967,396.40243 496.66101,199.3969"
         stroke-miterlimit="10"
         id="path23"
         inkscape:connector-curvature="0"
         style="fill:none;stroke:#779bff;stroke-width:2.5;stroke-linecap:round;stroke-linejoin:round;stroke-miterlimit:10;stroke-opacity:0.69803922;paint-order:fill stroke markers" />
      <path
         d="m 496.66101,199.3969 -208.06712,2.84145"
         stroke-miterlimit="10"
         id="path25"
         inkscape:connector-curvature="0"
         style="fill:none;stroke:#779bff;stroke-width:2.5;stroke-linecap:round;stroke-linejoin:round;stroke-miterlimit:10;stroke-opacity:0.69803922;paint-order:fill stroke markers" />
      <path
         d="M 288.59389,202.23835 227,401"
         stroke-miterlimit="10"
         id="path27"
         inkscape:connector-curvature="0"
         style="fill:none;stroke:#779bff;stroke-width:2.5;stroke-linecap:round;stroke-linejoin:round;stroke-miterlimit:10;stroke-opacity:0.69803922;paint-order:fill stroke markers" />
      <path
         d="M 462,342 405,262"
         stroke-miterlimit="10"
         id="path29"
         inkscape:connector-curvature="0"
         style="fill:none;stroke:#30f7bd;stroke-width:2.5;stroke-linecap:round;stroke-linejoin:round;stroke-miterlimit:10;stroke-opacity:0.69803922;paint-order:fill stroke markers" />
      <path
         d="m 405,262 -80,57"
         stroke-miterlimit="10"
         id="path31"
         inkscape:connector-curvature="0"
         style="fill:none;stroke:#30f7bd;stroke-width:2.5;stroke-linecap:round;stroke-linejoin:round;stroke-miterlimit:10;stroke-opacity:0.69803922;paint-order:fill stroke markers" />
      <path
         d="m 325,319 57,80"
         stroke-miterlimit="10"
         id="path33"
         inkscape:connector-curvature="0"
         style="fill:none;stroke:#30f7bd;stroke-width:2.5;stroke-linecap:round;stroke-linejoin:round;stroke-miterlimit:10;stroke-opacity:0.69803922;paint-order:fill stroke markers" />
      <path
         d="m 382,399 80,-57"
         stroke-miterlimit="10"
         id="path35"
         inkscape:connector-curvature="0"
         style="fill:none;stroke:#30f7bd;stroke-width:2.5;stroke-linecap:round;stroke-linejoin:round;stroke-miterlimit:10;stroke-opacity:0.69803922;paint-order:fill stroke markers" />
      <path
         d="m 399,341 c 0,2.76142 -2.23858,5 -5,5 -2.76142,0 -5,-2.23858 -5,-5 0,-2.76142 2.23858,-5 5,-5 2.76142,0 5,2.23858 5,5 z"
         id="path37"
         inkscape:connector-curvature="0"
         style="fill:#4d4dff;fill-opacity:1;stroke:none;paint-order:stroke fill markers" />
      <path
         d="m 399,341 c 0,2.76142 -2.23858,5 -5,5 -2.76142,0 -5,-2.23858 -5,-5 0,-2.76142 2.23858,-5 5,-5 2.76142,0 5,2.23858 5,5 z"
         stroke-miterlimit="10"
         id="path39"
         inkscape:connector-curvature="0"
         style="fill:none;stroke:#000000;stroke-linecap:round;stroke-linejoin:round;stroke-miterlimit:10;stroke-opacity:1;paint-order:fill stroke markers" />
      <text
         font-size="16px"
         font-style="normal"
         font-weight="normal"
         text-decoration="normal"
         x="398"
         y="331"
         dominant-baseline="alphabetic"
         id="text41"
         style="font-style:normal;font-weight:normal;font-size:16px;font-family:geogebra-sans-serif, sans-serif;dominant-baseline:alphabetic;text-anchor:start;fill:#4d4dff;fill-opacity:1;stroke:none">A</text>
      <text
         font-size="16px"
         font-style="normal"
         font-weight="normal"
         text-decoration="normal"
         x="398"
         y="331"
         dominant-baseline="alphabetic"
         stroke-miterlimit="10"
         id="text43"
         style="font-style:normal;font-weight:normal;font-size:16px;font-family:geogebra-sans-serif, sans-serif;dominant-baseline:alphabetic;text-anchor:start;fill:none;stroke:#ffffff;stroke-width:3;stroke-linejoin:bevel;stroke-miterlimit:10;stroke-opacity:1">A</text>
      <text
         font-size="16px"
         font-style="normal"
         font-weight="normal"
         text-decoration="normal"
         x="398"
         y="331"
         dominant-baseline="alphabetic"
         id="text45"
         style="font-style:normal;font-weight:normal;font-size:16px;font-family:geogebra-sans-serif, sans-serif;dominant-baseline:alphabetic;text-anchor:start;fill:#4d4dff;fill-opacity:1;stroke:none">A</text>
      <path
         d="m 503,442 c 0,2.76142 -2.23858,5 -5,5 -2.76142,0 -5,-2.23858 -5,-5 0,-2.76142 2.23858,-5 5,-5 2.76142,0 5,2.23858 5,5 z"
         id="path47"
         inkscape:connector-curvature="0"
         style="fill:#4d4dff;fill-opacity:1;stroke:none;paint-order:stroke fill markers" />
      <path
         d="m 503,442 c 0,2.76142 -2.23858,5 -5,5 -2.76142,0 -5,-2.23858 -5,-5 0,-2.76142 2.23858,-5 5,-5 2.76142,0 5,2.23858 5,5 z"
         stroke-miterlimit="10"
         id="path49"
         inkscape:connector-curvature="0"
         style="fill:none;stroke:#000000;stroke-linecap:round;stroke-linejoin:round;stroke-miterlimit:10;stroke-opacity:1;paint-order:fill stroke markers" />
      <text
         font-size="16px"
         font-style="normal"
         font-weight="normal"
         text-decoration="normal"
         x="502"
         y="432"
         dominant-baseline="alphabetic"
         id="text51"
         style="font-style:normal;font-weight:normal;font-size:16px;font-family:geogebra-sans-serif, sans-serif;dominant-baseline:alphabetic;text-anchor:start;fill:#4d4dff;fill-opacity:1;stroke:none">B</text>
      <text
         font-size="16px"
         font-style="normal"
         font-weight="normal"
         text-decoration="normal"
         x="502"
         y="432"
         dominant-baseline="alphabetic"
         stroke-miterlimit="10"
         id="text53"
         style="font-style:normal;font-weight:normal;font-size:16px;font-family:geogebra-sans-serif, sans-serif;dominant-baseline:alphabetic;text-anchor:start;fill:none;stroke:#ffffff;stroke-width:3;stroke-linejoin:bevel;stroke-miterlimit:10;stroke-opacity:1">B</text>
      <text
         font-size="16px"
         font-style="normal"
         font-weight="normal"
         text-decoration="normal"
         x="502"
         y="432"
         dominant-baseline="alphabetic"
         id="text55"
         style="font-style:normal;font-weight:normal;font-size:16px;font-family:geogebra-sans-serif, sans-serif;dominant-baseline:alphabetic;text-anchor:start;fill:#4d4dff;fill-opacity:1;stroke:none">B</text>
      <path
         d="m 232,401 c 0,2.76142 -2.23858,5 -5,5 -2.76142,0 -5,-2.23858 -5,-5 0,-2.76142 2.23858,-5 5,-5 2.76142,0 5,2.23858 5,5 z"
         id="path57"
         inkscape:connector-curvature="0"
         style="fill:#4d4dff;fill-opacity:1;stroke:none;paint-order:stroke fill markers" />
      <path
         d="m 232,401 c 0,2.76142 -2.23858,5 -5,5 -2.76142,0 -5,-2.23858 -5,-5 0,-2.76142 2.23858,-5 5,-5 2.76142,0 5,2.23858 5,5 z"
         stroke-miterlimit="10"
         id="path59"
         inkscape:connector-curvature="0"
         style="fill:none;stroke:#000000;stroke-linecap:round;stroke-linejoin:round;stroke-miterlimit:10;stroke-opacity:1;paint-order:fill stroke markers" />
      <text
         font-size="16px"
         font-style="normal"
         font-weight="normal"
         text-decoration="normal"
         x="231"
         y="391"
         dominant-baseline="alphabetic"
         id="text61"
         style="font-style:normal;font-weight:normal;font-size:16px;font-family:geogebra-sans-serif, sans-serif;dominant-baseline:alphabetic;text-anchor:start;fill:#4d4dff;fill-opacity:1;stroke:none">C</text>
      <text
         font-size="16px"
         font-style="normal"
         font-weight="normal"
         text-decoration="normal"
         x="231"
         y="391"
         dominant-baseline="alphabetic"
         stroke-miterlimit="10"
         id="text63"
         style="font-style:normal;font-weight:normal;font-size:16px;font-family:geogebra-sans-serif, sans-serif;dominant-baseline:alphabetic;text-anchor:start;fill:none;stroke:#ffffff;stroke-width:3;stroke-linejoin:bevel;stroke-miterlimit:10;stroke-opacity:1">C</text>
      <text
         font-size="16px"
         font-style="normal"
         font-weight="normal"
         text-decoration="normal"
         x="231"
         y="391"
         dominant-baseline="alphabetic"
         id="text65"
         style="font-style:normal;font-weight:normal;font-size:16px;font-family:geogebra-sans-serif, sans-serif;dominant-baseline:alphabetic;text-anchor:start;fill:#4d4dff;fill-opacity:1;stroke:none">C</text>
      <path
         d="m 402,521 c 0,2.76142 -2.23858,5 -5,5 -2.76142,0 -5,-2.23858 -5,-5 0,-2.76142 2.23858,-5 5,-5 2.76142,0 5,2.23858 5,5 z"
         id="path67"
         inkscape:connector-curvature="0"
         style="fill:#4d4dff;fill-opacity:1;stroke:none;paint-order:stroke fill markers" />
      <path
         d="m 402,521 c 0,2.76142 -2.23858,5 -5,5 -2.76142,0 -5,-2.23858 -5,-5 0,-2.76142 2.23858,-5 5,-5 2.76142,0 5,2.23858 5,5 z"
         stroke-miterlimit="10"
         id="path69"
         inkscape:connector-curvature="0"
         style="fill:none;stroke:#000000;stroke-linecap:round;stroke-linejoin:round;stroke-miterlimit:10;stroke-opacity:1;paint-order:fill stroke markers" />
      <text
         font-size="16px"
         font-style="normal"
         font-weight="normal"
         text-decoration="normal"
         x="401"
         y="511"
         dominant-baseline="alphabetic"
         id="text71"
         style="font-style:normal;font-weight:normal;font-size:16px;font-family:geogebra-sans-serif, sans-serif;dominant-baseline:alphabetic;text-anchor:start;fill:#4d4dff;fill-opacity:1;stroke:none">D</text>
      <text
         font-size="16px"
         font-style="normal"
         font-weight="normal"
         text-decoration="normal"
         x="401"
         y="511"
         dominant-baseline="alphabetic"
         stroke-miterlimit="10"
         id="text73"
         style="font-style:normal;font-weight:normal;font-size:16px;font-family:geogebra-sans-serif, sans-serif;dominant-baseline:alphabetic;text-anchor:start;fill:none;stroke:#ffffff;stroke-width:3;stroke-linejoin:bevel;stroke-miterlimit:10;stroke-opacity:1">D</text>
      <text
         font-size="16px"
         font-style="normal"
         font-weight="normal"
         text-decoration="normal"
         x="401"
         y="511"
         dominant-baseline="alphabetic"
         id="text75"
         style="font-style:normal;font-weight:normal;font-size:16px;font-family:geogebra-sans-serif, sans-serif;dominant-baseline:alphabetic;text-anchor:start;fill:#4d4dff;fill-opacity:1;stroke:none">D</text>
      <path
         d="m 568.65967,396.40243 c 0,2.76143 -2.23858,5 -5,5 -2.76142,0 -5,-2.23857 -5,-5 0,-2.76142 2.23858,-5 5,-5 2.76142,0 5,2.23858 5,5 z"
         id="path77"
         inkscape:connector-curvature="0"
         style="fill:#6600cc;fill-opacity:1;stroke:none;paint-order:stroke fill markers" />
      <path
         d="m 568.65967,396.40243 c 0,2.76143 -2.23858,5 -5,5 -2.76142,0 -5,-2.23857 -5,-5 0,-2.76142 2.23858,-5 5,-5 2.76142,0 5,2.23858 5,5 z"
         stroke-miterlimit="10"
         id="path79"
         inkscape:connector-curvature="0"
         style="fill:none;stroke:#000000;stroke-linecap:round;stroke-linejoin:round;stroke-miterlimit:10;stroke-opacity:1;paint-order:fill stroke markers" />
      <text
         font-size="16px"
         font-style="normal"
         font-weight="normal"
         text-decoration="normal"
         x="568"
         y="386"
         dominant-baseline="alphabetic"
         id="text81"
         style="font-style:normal;font-weight:normal;font-size:16px;font-family:geogebra-sans-serif, sans-serif;dominant-baseline:alphabetic;text-anchor:start;fill:#6600cc;fill-opacity:1;stroke:none">E</text>
      <text
         font-size="16px"
         font-style="normal"
         font-weight="normal"
         text-decoration="normal"
         x="568"
         y="386"
         dominant-baseline="alphabetic"
         stroke-miterlimit="10"
         id="text83"
         style="font-style:normal;font-weight:normal;font-size:16px;font-family:geogebra-sans-serif, sans-serif;dominant-baseline:alphabetic;text-anchor:start;fill:none;stroke:#ffffff;stroke-width:3;stroke-linejoin:bevel;stroke-miterlimit:10;stroke-opacity:1">E</text>
      <text
         font-size="16px"
         font-style="normal"
         font-weight="normal"
         text-decoration="normal"
         x="568"
         y="386"
         dominant-baseline="alphabetic"
         id="text85"
         style="font-style:normal;font-weight:normal;font-size:16px;font-family:geogebra-sans-serif, sans-serif;dominant-baseline:alphabetic;text-anchor:start;fill:#6600cc;fill-opacity:1;stroke:none">E</text>
      <path
         d="m 501.66101,199.3969 c 0,2.76142 -2.23857,5 -5,5 -2.76142,0 -5,-2.23858 -5,-5 0,-2.76142 2.23858,-5 5,-5 2.76143,0 5,2.23858 5,5 z"
         id="path87"
         inkscape:connector-curvature="0"
         style="fill:#ccccff;fill-opacity:1;stroke:none;paint-order:stroke fill markers" />
      <path
         d="m 501.66101,199.3969 c 0,2.76142 -2.23857,5 -5,5 -2.76142,0 -5,-2.23858 -5,-5 0,-2.76142 2.23858,-5 5,-5 2.76143,0 5,2.23858 5,5 z"
         stroke-miterlimit="10"
         id="path89"
         inkscape:connector-curvature="0"
         style="fill:none;stroke:#000000;stroke-linecap:round;stroke-linejoin:round;stroke-miterlimit:10;stroke-opacity:1;paint-order:fill stroke markers" />
      <text
         font-size="16px"
         font-style="normal"
         font-weight="normal"
         text-decoration="normal"
         x="501"
         y="189"
         dominant-baseline="alphabetic"
         id="text91"
         style="font-style:normal;font-weight:normal;font-size:16px;font-family:geogebra-sans-serif, sans-serif;dominant-baseline:alphabetic;text-anchor:start;fill:#ccccff;fill-opacity:1;stroke:none">F</text>
      <text
         font-size="16px"
         font-style="normal"
         font-weight="normal"
         text-decoration="normal"
         x="501"
         y="189"
         dominant-baseline="alphabetic"
         stroke-miterlimit="10"
         id="text93"
         style="font-style:normal;font-weight:normal;font-size:16px;font-family:geogebra-sans-serif, sans-serif;dominant-baseline:alphabetic;text-anchor:start;fill:none;stroke:#ffffff;stroke-width:3;stroke-linejoin:bevel;stroke-miterlimit:10;stroke-opacity:1">F</text>
      <text
         font-size="16px"
         font-style="normal"
         font-weight="normal"
         text-decoration="normal"
         x="501"
         y="189"
         dominant-baseline="alphabetic"
         id="text95"
         style="font-style:normal;font-weight:normal;font-size:16px;font-family:geogebra-sans-serif, sans-serif;dominant-baseline:alphabetic;text-anchor:start;fill:#ccccff;fill-opacity:1;stroke:none">F</text>
      <path
         d="m 293.59389,202.23835 c 0,2.76143 -2.23857,5 -5,5 -2.76142,0 -5,-2.23857 -5,-5 0,-2.76142 2.23858,-5 5,-5 2.76143,0 5,2.23858 5,5 z"
         id="path97"
         inkscape:connector-curvature="0"
         style="fill:#0000ff;fill-opacity:1;stroke:none;paint-order:stroke fill markers" />
      <path
         d="m 293.59389,202.23835 c 0,2.76143 -2.23857,5 -5,5 -2.76142,0 -5,-2.23857 -5,-5 0,-2.76142 2.23858,-5 5,-5 2.76143,0 5,2.23858 5,5 z"
         stroke-miterlimit="10"
         id="path99"
         inkscape:connector-curvature="0"
         style="fill:none;stroke:#000000;stroke-linecap:round;stroke-linejoin:round;stroke-miterlimit:10;stroke-opacity:1;paint-order:fill stroke markers" />
      <text
         font-size="16px"
         font-style="normal"
         font-weight="normal"
         text-decoration="normal"
         x="293"
         y="192"
         dominant-baseline="alphabetic"
         id="text101"
         style="font-style:normal;font-weight:normal;font-size:16px;font-family:geogebra-sans-serif, sans-serif;dominant-baseline:alphabetic;text-anchor:start;fill:#0000ff;fill-opacity:1;stroke:none">G</text>
      <text
         font-size="16px"
         font-style="normal"
         font-weight="normal"
         text-decoration="normal"
         x="293"
         y="192"
         dominant-baseline="alphabetic"
         stroke-miterlimit="10"
         id="text103"
         style="font-style:normal;font-weight:normal;font-size:16px;font-family:geogebra-sans-serif, sans-serif;dominant-baseline:alphabetic;text-anchor:start;fill:none;stroke:#ffffff;stroke-width:3;stroke-linejoin:bevel;stroke-miterlimit:10;stroke-opacity:1">G</text>
      <text
         font-size="16px"
         font-style="normal"
         font-weight="normal"
         text-decoration="normal"
         x="293"
         y="192"
         dominant-baseline="alphabetic"
         id="text105"
         style="font-style:normal;font-weight:normal;font-size:16px;font-family:geogebra-sans-serif, sans-serif;dominant-baseline:alphabetic;text-anchor:start;fill:#0000ff;fill-opacity:1;stroke:none">G</text>
      <path
         d="m 429,331 c 0,2.76142 -2.23858,5 -5,5 -2.76142,0 -5,-2.23858 -5,-5 0,-2.76142 2.23858,-5 5,-5 2.76142,0 5,2.23858 5,5 z"
         id="path107"
         inkscape:connector-curvature="0"
         style="fill:#4d4dff;fill-opacity:1;stroke:none;paint-order:stroke fill markers" />
      <path
         d="m 429,331 c 0,2.76142 -2.23858,5 -5,5 -2.76142,0 -5,-2.23858 -5,-5 0,-2.76142 2.23858,-5 5,-5 2.76142,0 5,2.23858 5,5 z"
         stroke-miterlimit="10"
         id="path109"
         inkscape:connector-curvature="0"
         style="fill:none;stroke:#000000;stroke-linecap:round;stroke-linejoin:round;stroke-miterlimit:10;stroke-opacity:1;paint-order:fill stroke markers" />
      <text
         font-size="16px"
         font-style="normal"
         font-weight="normal"
         text-decoration="normal"
         x="428"
         y="321"
         dominant-baseline="alphabetic"
         id="text111"
         style="font-style:normal;font-weight:normal;font-size:16px;font-family:geogebra-sans-serif, sans-serif;dominant-baseline:alphabetic;text-anchor:start;fill:#4d4dff;fill-opacity:1;stroke:none">H</text>
      <text
         font-size="16px"
         font-style="normal"
         font-weight="normal"
         text-decoration="normal"
         x="428"
         y="321"
         dominant-baseline="alphabetic"
         stroke-miterlimit="10"
         id="text113"
         style="font-style:normal;font-weight:normal;font-size:16px;font-family:geogebra-sans-serif, sans-serif;dominant-baseline:alphabetic;text-anchor:start;fill:none;stroke:#ffffff;stroke-width:3;stroke-linejoin:bevel;stroke-miterlimit:10;stroke-opacity:1">H</text>
      <text
         font-size="16px"
         font-style="normal"
         font-weight="normal"
         text-decoration="normal"
         x="428"
         y="321"
         dominant-baseline="alphabetic"
         id="text115"
         style="font-style:normal;font-weight:normal;font-size:16px;font-family:geogebra-sans-serif, sans-serif;dominant-baseline:alphabetic;text-anchor:start;fill:#4d4dff;fill-opacity:1;stroke:none">H</text>
      <path
         d="m 467,342 c 0,2.76142 -2.23858,5 -5,5 -2.76142,0 -5,-2.23858 -5,-5 0,-2.76142 2.23858,-5 5,-5 2.76142,0 5,2.23858 5,5 z"
         id="path117"
         inkscape:connector-curvature="0"
         style="fill:#4d4dff;fill-opacity:1;stroke:none;paint-order:stroke fill markers" />
      <path
         d="m 467,342 c 0,2.76142 -2.23858,5 -5,5 -2.76142,0 -5,-2.23858 -5,-5 0,-2.76142 2.23858,-5 5,-5 2.76142,0 5,2.23858 5,5 z"
         stroke-miterlimit="10"
         id="path119"
         inkscape:connector-curvature="0"
         style="fill:none;stroke:#000000;stroke-linecap:round;stroke-linejoin:round;stroke-miterlimit:10;stroke-opacity:1;paint-order:fill stroke markers" />
      <text
         font-size="16px"
         font-style="normal"
         font-weight="normal"
         text-decoration="normal"
         x="466"
         y="332"
         dominant-baseline="alphabetic"
         id="text121"
         style="font-style:normal;font-weight:normal;font-size:16px;font-family:geogebra-sans-serif, sans-serif;dominant-baseline:alphabetic;text-anchor:start;fill:#4d4dff;fill-opacity:1;stroke:none">I</text>
      <text
         font-size="16px"
         font-style="normal"
         font-weight="normal"
         text-decoration="normal"
         x="466"
         y="332"
         dominant-baseline="alphabetic"
         stroke-miterlimit="10"
         id="text123"
         style="font-style:normal;font-weight:normal;font-size:16px;font-family:geogebra-sans-serif, sans-serif;dominant-baseline:alphabetic;text-anchor:start;fill:none;stroke:#ffffff;stroke-width:3;stroke-linejoin:bevel;stroke-miterlimit:10;stroke-opacity:1">I</text>
      <text
         font-size="16px"
         font-style="normal"
         font-weight="normal"
         text-decoration="normal"
         x="466"
         y="332"
         dominant-baseline="alphabetic"
         id="text125"
         style="font-style:normal;font-weight:normal;font-size:16px;font-family:geogebra-sans-serif, sans-serif;dominant-baseline:alphabetic;text-anchor:start;fill:#4d4dff;fill-opacity:1;stroke:none">I</text>
      <path
         d="m 410,262 c 0,2.76142 -2.23858,5 -5,5 -2.76142,0 -5,-2.23858 -5,-5 0,-2.76142 2.23858,-5 5,-5 2.76142,0 5,2.23858 5,5 z"
         id="path127"
         inkscape:connector-curvature="0"
         style="fill:#4d4dff;fill-opacity:1;stroke:none;paint-order:stroke fill markers" />
      <path
         d="m 410,262 c 0,2.76142 -2.23858,5 -5,5 -2.76142,0 -5,-2.23858 -5,-5 0,-2.76142 2.23858,-5 5,-5 2.76142,0 5,2.23858 5,5 z"
         stroke-miterlimit="10"
         id="path129"
         inkscape:connector-curvature="0"
         style="fill:none;stroke:#000000;stroke-linecap:round;stroke-linejoin:round;stroke-miterlimit:10;stroke-opacity:1;paint-order:fill stroke markers" />
      <text
         font-size="16px"
         font-style="normal"
         font-weight="normal"
         text-decoration="normal"
         x="409"
         y="252"
         dominant-baseline="alphabetic"
         id="text131"
         style="font-style:normal;font-weight:normal;font-size:16px;font-family:geogebra-sans-serif, sans-serif;dominant-baseline:alphabetic;text-anchor:start;fill:#4d4dff;fill-opacity:1;stroke:none">J</text>
      <text
         font-size="16px"
         font-style="normal"
         font-weight="normal"
         text-decoration="normal"
         x="409"
         y="252"
         dominant-baseline="alphabetic"
         stroke-miterlimit="10"
         id="text133"
         style="font-style:normal;font-weight:normal;font-size:16px;font-family:geogebra-sans-serif, sans-serif;dominant-baseline:alphabetic;text-anchor:start;fill:none;stroke:#ffffff;stroke-width:3;stroke-linejoin:bevel;stroke-miterlimit:10;stroke-opacity:1">J</text>
      <text
         font-size="16px"
         font-style="normal"
         font-weight="normal"
         text-decoration="normal"
         x="409"
         y="252"
         dominant-baseline="alphabetic"
         id="text135"
         style="font-style:normal;font-weight:normal;font-size:16px;font-family:geogebra-sans-serif, sans-serif;dominant-baseline:alphabetic;text-anchor:start;fill:#4d4dff;fill-opacity:1;stroke:none">J</text>
      <path
         d="m 330,319 c 0,2.76142 -2.23858,5 -5,5 -2.76142,0 -5,-2.23858 -5,-5 0,-2.76142 2.23858,-5 5,-5 2.76142,0 5,2.23858 5,5 z"
         id="path137"
         inkscape:connector-curvature="0"
         style="fill:#444444;fill-opacity:1;stroke:none;paint-order:stroke fill markers" />
      <path
         d="m 330,319 c 0,2.76142 -2.23858,5 -5,5 -2.76142,0 -5,-2.23858 -5,-5 0,-2.76142 2.23858,-5 5,-5 2.76142,0 5,2.23858 5,5 z"
         stroke-miterlimit="10"
         id="path139"
         inkscape:connector-curvature="0"
         style="fill:none;stroke:#000000;stroke-linecap:round;stroke-linejoin:round;stroke-miterlimit:10;stroke-opacity:1;paint-order:fill stroke markers" />
      <text
         font-size="16px"
         font-style="normal"
         font-weight="normal"
         text-decoration="normal"
         x="329"
         y="309"
         dominant-baseline="alphabetic"
         id="text141"
         style="font-style:normal;font-weight:normal;font-size:16px;font-family:geogebra-sans-serif, sans-serif;dominant-baseline:alphabetic;text-anchor:start;fill:#444444;fill-opacity:1;stroke:none">K</text>
      <text
         font-size="16px"
         font-style="normal"
         font-weight="normal"
         text-decoration="normal"
         x="329"
         y="309"
         dominant-baseline="alphabetic"
         stroke-miterlimit="10"
         id="text143"
         style="font-style:normal;font-weight:normal;font-size:16px;font-family:geogebra-sans-serif, sans-serif;dominant-baseline:alphabetic;text-anchor:start;fill:none;stroke:#ffffff;stroke-width:3;stroke-linejoin:bevel;stroke-miterlimit:10;stroke-opacity:1">K</text>
      <text
         font-size="16px"
         font-style="normal"
         font-weight="normal"
         text-decoration="normal"
         x="329"
         y="309"
         dominant-baseline="alphabetic"
         id="text145"
         style="font-style:normal;font-weight:normal;font-size:16px;font-family:geogebra-sans-serif, sans-serif;dominant-baseline:alphabetic;text-anchor:start;fill:#444444;fill-opacity:1;stroke:none">K</text>
      <path
         d="m 387,399 c 0,2.76142 -2.23858,5 -5,5 -2.76142,0 -5,-2.23858 -5,-5 0,-2.76142 2.23858,-5 5,-5 2.76142,0 5,2.23858 5,5 z"
         id="path147"
         inkscape:connector-curvature="0"
         style="fill:#444444;fill-opacity:1;stroke:none;paint-order:stroke fill markers" />
      <path
         d="m 387,399 c 0,2.76142 -2.23858,5 -5,5 -2.76142,0 -5,-2.23858 -5,-5 0,-2.76142 2.23858,-5 5,-5 2.76142,0 5,2.23858 5,5 z"
         stroke-miterlimit="10"
         id="path149"
         inkscape:connector-curvature="0"
         style="fill:none;stroke:#000000;stroke-linecap:round;stroke-linejoin:round;stroke-miterlimit:10;stroke-opacity:1;paint-order:fill stroke markers" />
      <text
         font-size="16px"
         font-style="normal"
         font-weight="normal"
         text-decoration="normal"
         x="386"
         y="389"
         dominant-baseline="alphabetic"
         id="text151"
         style="font-style:normal;font-weight:normal;font-size:16px;font-family:geogebra-sans-serif, sans-serif;dominant-baseline:alphabetic;text-anchor:start;fill:#444444;fill-opacity:1;stroke:none">L</text>
      <text
         font-size="16px"
         font-style="normal"
         font-weight="normal"
         text-decoration="normal"
         x="386"
         y="389"
         dominant-baseline="alphabetic"
         stroke-miterlimit="10"
         id="text153"
         style="font-style:normal;font-weight:normal;font-size:16px;font-family:geogebra-sans-serif, sans-serif;dominant-baseline:alphabetic;text-anchor:start;fill:none;stroke:#ffffff;stroke-width:3;stroke-linejoin:bevel;stroke-miterlimit:10;stroke-opacity:1">L</text>
      <text
         font-size="16px"
         font-style="normal"
         font-weight="normal"
         text-decoration="normal"
         x="386"
         y="389"
         dominant-baseline="alphabetic"
         id="text155"
         style="font-style:normal;font-weight:normal;font-size:16px;font-family:geogebra-sans-serif, sans-serif;dominant-baseline:alphabetic;text-anchor:start;fill:#444444;fill-opacity:1;stroke:none">L</text>
    </g>
  </g>
  <rect
     style="fill:none;fill-opacity:1;fill-rule:evenodd;stroke:#0000ff;stroke-width:4.02519703;stroke-linecap:round;stroke-linejoin:miter;stroke-miterlimit:4;stroke-dasharray:none;stroke-opacity:1"
     id="rect4661"
     width="413.21609"
     height="380.30505"
     x="2.0125985"
     y="2.0125985" />
</svg>
